<?xml version="1.0" encoding="UTF-8"?>
<svg version="1.1" xmlns="http://www.w3.org/2000/svg" width="150" height="150">
<path d="M0 0 C9.48388684 6.90028992 16.90485561 17.13665519 19.87109375 28.59375 C22.32763498 45.92113902 19.89942237 60.46093674 9.30859375 74.6796875 C2.43739889 83.32791552 -8.70978073 90.12279882 -19.69140625 91.6796875 C-37.17406342 93.08266489 -50.84104713 90.34228801 -64.72265625 79.0234375 C-73.65107048 70.72157865 -79.31867536 59.03158952 -80.07421875 46.890625 C-80.59676586 31.89011496 -77.6470813 19.28136428 -67.87890625 7.4921875 C-50.00402037 -11.53591682 -21.62954333 -13.91212227 0 0 Z " fill="#C94691" transform="translate(104.69140625,33.3203125)"/>
<path d="M0 0 C1.23685547 -0.01998047 2.47371094 -0.03996094 3.74804688 -0.06054688 C16.9480332 -0.05349183 16.9480332 -0.05349183 22.0625 4.4375 C25.66491583 8.89895966 26.56718324 11.89630508 26.55859375 17.59375 C26.56004898 18.25910767 26.56150421 18.92446533 26.56300354 19.60998535 C26.56135298 21.00842698 26.54988654 22.40688838 26.52905273 23.80517578 C26.50007345 25.93210896 26.50846365 28.05654737 26.52148438 30.18359375 C26.46837475 41.81212936 26.46837475 41.81212936 23.0625 47.4375 C16.58872419 53.27968792 10.89571948 52.68810586 2.56933594 52.73266602 C0.33465531 52.74982983 -1.89852621 52.79370843 -4.1328125 52.83789062 C-5.56248915 52.84802243 -6.99217836 52.85653701 -8.421875 52.86328125 C-9.71834961 52.87786377 -11.01482422 52.89244629 -12.35058594 52.9074707 C-17.35312036 52.2520202 -20.45052211 50.12957829 -23.75 46.375 C-27.06416567 40.96767706 -26.23595671 34.48238944 -26.28759766 28.35107422 C-26.3041187 26.91568749 -26.33135864 25.48038172 -26.36962891 24.04541016 C-26.72536208 10.61725628 -26.72536208 10.61725628 -23.8515625 6.140625 C-16.60605062 -0.58041283 -9.51121896 -0.05434982 0 0 Z " fill="#BA2E74" transform="translate(74.9375,48.5625)"/>
<path d="M0 0 C0.66 0 1.32 0 2 0 C3.96292036 3.73237798 5.91989264 7.4677967 7.87158203 11.20605469 C8.53534801 12.47544657 9.20068854 13.74401648 9.86767578 15.01171875 C10.83007474 16.84157147 11.7866377 18.67437574 12.7421875 20.5078125 C13.3182373 21.60754395 13.89428711 22.70727539 14.48779297 23.84033203 C15.9388775 26.87228811 17.13460064 29.75179662 18 33 C13.6246095 43.69539901 2.96167216 50.93729182 -7.0078125 55.7734375 C-14.0193887 58.64763453 -19.95976916 59.26497192 -27.4375 59.125 C-28.35982422 59.11597656 -29.28214844 59.10695312 -30.23242188 59.09765625 C-32.48855809 59.0742766 -34.74413684 59.04150916 -37 59 C-37.21269531 58.23171875 -37.42539063 57.4634375 -37.64453125 56.671875 C-39.88988822 50.58935181 -43.1681518 45.02706203 -46.27539062 39.34765625 C-46.76587891 38.43371094 -47.25636719 37.51976562 -47.76171875 36.578125 C-48.21506592 35.74700195 -48.66841309 34.91587891 -49.13549805 34.05957031 C-49.56342651 33.04008301 -49.56342651 33.04008301 -50 32 C-49.67 31.34 -49.34 30.68 -49 30 C-48.16210938 30.64904297 -47.32421875 31.29808594 -46.4609375 31.96679688 C-42.87802631 34.3436989 -39.93966679 34.51593425 -35.625 34.53125 C-34.59366943 34.53699036 -34.59366943 34.53699036 -33.54150391 34.54284668 C-32.09601364 34.5455539 -30.65047339 34.53827628 -29.20507812 34.52148438 C-27.00538868 34.5000525 -24.80896412 34.52132124 -22.609375 34.546875 C-21.19790953 34.54423151 -19.78644608 34.53910607 -18.375 34.53125 C-16.46847656 34.52448242 -16.46847656 34.52448242 -14.5234375 34.51757812 C-9.77787424 33.82047487 -6.6292498 31.97195789 -3.56542969 28.26367188 C-0.65596446 22.41930346 -0.34326742 16.9608884 -0.25 10.5 C-0.20552734 8.98019531 -0.20552734 8.98019531 -0.16015625 7.4296875 C-0.09006268 4.95304799 -0.03707027 2.47731649 0 0 Z " fill="#B93261" transform="translate(102,66)"/>
<path d="M0 0 C1.23685547 -0.01998047 2.47371094 -0.03996094 3.74804688 -0.06054688 C16.9480332 -0.05349183 16.9480332 -0.05349183 22.0625 4.4375 C25.66491583 8.89895966 26.56718324 11.89630508 26.55859375 17.59375 C26.56004898 18.25910767 26.56150421 18.92446533 26.56300354 19.60998535 C26.56135298 21.00842698 26.54988654 22.40688838 26.52905273 23.80517578 C26.50007345 25.93210896 26.50846365 28.05654737 26.52148438 30.18359375 C26.46837475 41.81212936 26.46837475 41.81212936 23.0625 47.4375 C16.58872419 53.27968792 10.89571948 52.68810586 2.56933594 52.73266602 C0.33465531 52.74982983 -1.89852621 52.79370843 -4.1328125 52.83789062 C-5.56248915 52.84802243 -6.99217836 52.85653701 -8.421875 52.86328125 C-9.71834961 52.87786377 -11.01482422 52.89244629 -12.35058594 52.9074707 C-17.35312036 52.2520202 -20.45052211 50.12957829 -23.75 46.375 C-27.06416567 40.96767706 -26.23595671 34.48238944 -26.28759766 28.35107422 C-26.3041187 26.91568749 -26.33135864 25.48038172 -26.36962891 24.04541016 C-26.72536208 10.61725628 -26.72536208 10.61725628 -23.8515625 6.140625 C-16.60605062 -0.58041283 -9.51121896 -0.05434982 0 0 Z M-19.9375 10.4375 C-22.20946789 14.98143577 -21.16765478 21.26140824 -21.1875 26.25 C-21.208125 27.53455078 -21.22875 28.81910156 -21.25 30.14257812 C-21.25515625 31.38072266 -21.2603125 32.61886719 -21.265625 33.89453125 C-21.2749707 35.02866455 -21.28431641 36.16279785 -21.29394531 37.33129883 C-20.89351607 40.82079285 -20.03693935 42.64654936 -17.9375 45.4375 C-13.21022525 48.5890165 -8.15758398 47.77138076 -2.59570312 47.75317383 C-0.57626999 47.75002149 1.44168625 47.77345198 3.4609375 47.79882812 C4.7396875 47.79947266 6.0184375 47.80011719 7.3359375 47.80078125 C8.50560059 47.80376221 9.67526367 47.80674316 10.88037109 47.80981445 C14.42920116 47.39459535 16.26137044 46.63218346 19.0625 44.4375 C22.65092161 39.46051524 21.43161505 32.34081037 21.4375 26.5 C21.47423828 24.58670898 21.47423828 24.58670898 21.51171875 22.63476562 C21.51558594 21.40564453 21.51945312 20.17652344 21.5234375 18.91015625 C21.53576416 17.22805054 21.53576416 17.22805054 21.54833984 15.51196289 C20.94973088 11.72388112 19.75465141 10.1287637 17.0625 7.4375 C12.08149265 4.00256923 5.48322539 5.02739576 -0.3125 5 C-1.53195313 4.96712891 -2.75140625 4.93425781 -4.0078125 4.90039062 C-11.07733018 4.85794265 -15.2305675 4.90727012 -19.9375 10.4375 Z " fill="#FDFAFB" transform="translate(74.9375,48.5625)"/>
<path d="M0 0 C3.4285785 2.02008139 6.20847086 4.41694171 8 8 C8.54317573 12.9509132 8.52241949 16.89488185 6.375 21.4375 C2.75662327 25.34153805 -0.22870837 26.77858855 -5.5 27.4375 C-10.46685012 26.81664374 -13.21772903 24.65935573 -16.8125 21.3125 C-18.69632109 17.64400629 -19.22870985 14.10984671 -19 10 C-17.79801184 6.29446255 -15.75878133 3.69183004 -12.875 1.0625 C-8.5202543 -0.54686254 -4.57044532 -0.90271626 0 0 Z " fill="#FBF2F6" transform="translate(80,62)"/>
<path d="M0 0 C3.32878632 2.46040728 4.79301948 3.89610387 5.5625 8 C4.84202557 11.8425303 3.99097304 13.45767292 1 16 C-2.99893269 16.94237143 -5.98105682 16.61136591 -9.5 14.5 C-11.61136591 10.98105682 -11.94237143 7.99893269 -11 4 C-7.75032314 0.17685075 -4.94151119 -0.92653335 0 0 Z " fill="#BB2975" transform="translate(78,67)"/>
<path d="M0 0 C3 4 3 4 3 6 C2.34 6 1.68 6 1 6 C1 13.26 1 20.52 1 28 C0.67 28 0.34 28 0 28 C0 18.76 0 9.52 0 0 Z " fill="#B755AE" transform="translate(101,60)"/>
<path d="M0 0 C1.2065625 0.0309375 1.2065625 0.0309375 2.4375 0.0625 C3.0625 1.9375 3.0625 1.9375 3.4375 4.0625 C2.7775 4.7225 2.1175 5.3825 1.4375 6.0625 C-0.6875 5.6875 -0.6875 5.6875 -2.5625 5.0625 C-3.125 3.125 -3.125 3.125 -3.5625 1.0625 C-2.5625 0.0625 -2.5625 0.0625 0 0 Z " fill="#F7EBF4" transform="translate(88.5625,58.9375)"/>
</svg>
