<?xml version="1.0" encoding="UTF-8"?>
<!DOCTYPE svg PUBLIC "-//W3C//DTD SVG 1.1//EN" "http://www.w3.org/Graphics/SVG/1.1/DTD/svg11.dtd">
<svg xmlns="http://www.w3.org/2000/svg" version="1.1" width="600px" height="600px" style="shape-rendering:geometricPrecision; text-rendering:geometricPrecision; image-rendering:optimizeQuality; fill-rule:evenodd; clip-rule:evenodd" xmlns:xlink="http://www.w3.org/1999/xlink">
<g><path style="opacity:0.997" fill="#0866ff" d="M 274.5,-0.5 C 291.167,-0.5 307.833,-0.5 324.5,-0.5C 424.331,10.8956 501.498,58.5623 556,142.5C 580.865,184.591 595.365,229.924 599.5,278.5C 599.5,292.167 599.5,305.833 599.5,319.5C 588.931,425.518 538.264,506.018 447.5,561C 412.55,580.483 375.216,592.65 335.5,597.5C 335.5,528.833 335.5,460.167 335.5,391.5C 362.502,391.667 389.502,391.5 416.5,391C 422.581,360.607 428.248,330.107 433.5,299.5C 401.338,298.502 369.004,298.168 336.5,298.5C 336.5,284.167 336.5,269.833 336.5,255.5C 336.906,223.485 352.906,205.318 384.5,201C 402.497,200.5 420.497,200.333 438.5,200.5C 438.5,172.833 438.5,145.167 438.5,117.5C 400.313,109.364 361.98,108.531 323.5,115C 276.91,124.925 247.076,152.758 234,198.5C 231.138,209.003 229.138,219.67 228,230.5C 226.686,253.479 226.186,276.479 226.5,299.5C 205.833,299.5 185.167,299.5 164.5,299.5C 164.333,329.835 164.5,360.168 165,390.5C 185.424,391.493 205.924,391.827 226.5,391.5C 226.5,457.833 226.5,524.167 226.5,590.5C 128.679,563.828 59.8459,503.828 20,410.5C 9.1974,382.297 2.36406,353.297 -0.5,323.5C -0.5,307.167 -0.5,290.833 -0.5,274.5C 11.2372,170.676 61.5706,91.8424 150.5,38C 189.299,16.5641 230.633,3.73074 274.5,-0.5 Z"/></g>
<g><path style="opacity:0.999" fill="#fefeff" d="M 336.5,255.5 C 335.504,269.99 335.171,284.657 335.5,299.5C 368.167,299.5 400.833,299.5 433.5,299.5C 428.248,330.107 422.581,360.607 416.5,391C 389.502,391.5 362.502,391.667 335.5,391.5C 335.5,460.167 335.5,528.833 335.5,597.5C 330.002,597.952 324.669,598.619 319.5,599.5C 306.167,599.5 292.833,599.5 279.5,599.5C 261.698,597.907 244.031,594.907 226.5,590.5C 226.5,524.167 226.5,457.833 226.5,391.5C 205.924,391.827 185.424,391.493 165,390.5C 164.5,360.168 164.333,329.835 164.5,299.5C 185.167,299.5 205.833,299.5 226.5,299.5C 226.186,276.479 226.686,253.479 228,230.5C 229.138,219.67 231.138,209.003 234,198.5C 247.076,152.758 276.91,124.925 323.5,115C 361.98,108.531 400.313,109.364 438.5,117.5C 438.5,145.167 438.5,172.833 438.5,200.5C 420.497,200.333 402.497,200.5 384.5,201C 352.906,205.318 336.906,223.485 336.5,255.5 Z"/></g>
<g><path style="opacity:0.886" fill="#357fff" d="M 336.5,255.5 C 336.5,269.833 336.5,284.167 336.5,298.5C 369.004,298.168 401.338,298.502 433.5,299.5C 400.833,299.5 368.167,299.5 335.5,299.5C 335.171,284.657 335.504,269.99 336.5,255.5 Z"/></g>
</svg>
