<?xml version="1.0" encoding="UTF-8"?>
<svg version="1.1" xmlns="http://www.w3.org/2000/svg" width="150" height="150">
<path d="M0 0 C10.46714266 7.1182577 18.51678291 17.1132615 21.75 29.6015625 C24.20654123 46.92895152 21.77832862 61.46874924 11.1875 75.6875 C4.31630514 84.33572802 -6.83087448 91.13061132 -17.8125 92.6875 C-35.36959566 94.09645106 -48.77204698 91.25388733 -62.80859375 80.1015625 C-71.81808711 71.87463092 -77.4526856 60.12631505 -78.125 48.0390625 C-78.63893319 32.9417381 -75.85064995 20.38871546 -66 8.5 C-48.65113741 -9.96814405 -21.39750397 -12.83850238 0 0 Z " fill="#0966FF" transform="translate(102.8125,32.3125)"/>
<path d="M0 0 C0.87914062 0.00902344 1.75828125 0.01804688 2.6640625 0.02734375 C4.8178271 0.05075423 6.97145014 0.0866199 9.125 0.125 C9.125 4.745 9.125 9.365 9.125 14.125 C7.578125 14.228125 6.03125 14.33125 4.4375 14.4375 C0.30401753 14.84733537 -2.56199915 15.45322512 -5.875 18.125 C-7.15946919 20.69393838 -7.20477144 22.89076337 -7.4375 25.75 C-7.581875 27.52375 -7.72625 29.2975 -7.875 31.125 C-2.595 31.125 2.685 31.125 8.125 31.125 C7.58900978 36.17862207 6.96175099 41.10449405 6.125 46.125 C1.505 46.125 -3.115 46.125 -7.875 46.125 C-7.875 57.675 -7.875 69.225 -7.875 81.125 C-23.875 81.125 -23.875 81.125 -25.875 80.125 C-25.875 68.905 -25.875 57.685 -25.875 46.125 C-29.175 46.125 -32.475 46.125 -35.875 46.125 C-35.875 41.175 -35.875 36.225 -35.875 31.125 C-32.575 31.125 -29.275 31.125 -25.875 31.125 C-25.90980469 30.21878906 -25.94460937 29.31257813 -25.98046875 28.37890625 C-26.34051441 12.17685145 -26.34051441 12.17685145 -21.328125 6.31640625 C-14.88226526 0.36967282 -8.44250401 -0.16528999 0 0 Z " fill="#FEFEFF" transform="translate(88.875,43.875)"/>
</svg>
