<?xml version="1.0" encoding="UTF-8"?>
<svg version="1.1" xmlns="http://www.w3.org/2000/svg" width="150" height="150">
<path d="M0 0 C11.89366691 7.52717476 19.76932421 18.28030192 23 32 C24.46868893 46.26656835 22.79298134 58.9971492 13.9765625 70.68359375 C6.26535777 79.72063803 -4.0560229 87.16829066 -16.25927734 88.18896484 C-18.71783302 88.26733911 -21.16537949 88.27305894 -23.625 88.25 C-24.87410156 88.26160156 -24.87410156 88.26160156 -26.1484375 88.2734375 C-30.54272242 88.25944296 -34.00384394 88.05516597 -38 86 C-37.68546875 85.35675781 -37.3709375 84.71351562 -37.046875 84.05078125 C-33.64745128 76.87308236 -31.17225107 69.63321746 -29 62 C-27.576875 62.99 -27.576875 62.99 -26.125 64 C-21.48950654 66.61273268 -17.20377151 66.93798389 -12 66 C-5.0675116 63.16178611 -0.64502997 58.11988443 2.8125 51.5625 C5.08904698 44.77210987 5.34486856 36.21139591 3.16796875 29.39453125 C2.04078541 27.05271753 2.04078541 27.05271753 0 24 C-0.29132813 23.31292969 -0.58265625 22.62585938 -0.8828125 21.91796875 C-2.28555405 19.5097656 -3.44960254 19.0479815 -6 18 C-6.68835938 17.64679687 -7.37671875 17.29359375 -8.0859375 16.9296875 C-16.86857265 12.88308086 -26.36251037 12.31598651 -35.5 15.6875 C-42.45628791 18.97779003 -46.8537266 23.04713668 -50.078125 30.05078125 C-52.05347043 36.37021262 -52.43141938 43.37518895 -49.97265625 49.6015625 C-47.95200717 52.97954729 -46.31049701 54.79300199 -43 57 C-42.67813315 52.39613845 -42.67813315 52.39613845 -43.984375 48.09375 C-46.22958401 43.46516526 -45.74762367 37.52322987 -44.3125 32.6796875 C-41.78813257 27.14711556 -38.21065943 23.52991154 -32.671875 20.890625 C-26.53681698 18.84560566 -19.39799716 18.95428181 -13.5 21.6875 C-8.46406869 24.65472924 -5.86976723 28.53330767 -4 34 C-3.03839304 41.9053037 -3.93181315 49.08015807 -8 56 C-11.36670397 59.28654435 -13.6761545 60.90193737 -18.375 61.25 C-22 61 -22 61 -24.375 59.875 C-26.73272984 57.15454249 -26.93414544 55.62200055 -27 52 C-26.32840041 49.50062939 -25.52201167 47.06548036 -24.70703125 44.609375 C-23.62548253 40.61780292 -23.73864976 37.11626633 -24 33 C-25.10649557 31.68465212 -25.10649557 31.68465212 -27.875 31.6875 C-31.00040606 31.69791694 -31.00040606 31.69791694 -32.8125 33.5625 C-34.85677104 37.75863529 -35.29949893 41.53208548 -34.3671875 46.1015625 C-33.8893948 51.17429772 -35.04359029 55.19363505 -36.375 60.0625 C-38.53774004 68.45369589 -39.83928699 76.30688726 -40 85 C-48.8373224 83.74425259 -55.67965364 76.99554205 -61.24609375 70.39453125 C-69.82797005 58.67807207 -71.18064571 46.07716184 -70 32 C-67.70522335 19.49552845 -60.13884364 9.42633082 -50 2 C-35.01763811 -7.0169498 -15.54686817 -8.70800537 0 0 Z " fill="#BC071B" transform="translate(98,33)"/>
</svg>
